<?xml version="1.0" standalone="no"?>
<!DOCTYPE svg PUBLIC "-//W3C//DTD SVG 20010904//EN"
 "http://www.w3.org/TR/2001/REC-SVG-20010904/DTD/svg10.dtd">
<svg version="1.0" xmlns="http://www.w3.org/2000/svg"
 width="360.000000pt" height="360.000000pt" viewBox="0 0 360.000000 360.000000"
 preserveAspectRatio="xMidYMid meet">

<g transform="translate(0.000000,360.000000) scale(0.100000,-0.100000)"
fill="#000000" stroke="none">
<path d="M55 3586 c11 -7 31 -17 45 -21 14 -4 75 -32 137 -61 61 -30 118 -54
127 -54 9 0 16 -4 16 -9 0 -5 26 -19 58 -32 31 -13 95 -42 141 -66 46 -23 99
-45 118 -49 18 -3 33 -10 33 -16 0 -5 17 -16 38 -24 20 -8 60 -26 87 -39 131
-62 190 -85 213 -83 15 2 27 -3 29 -12 4 -13 3 -13 -6 0 -5 8 -13 11 -17 7
-11 -11 4 -21 81 -53 39 -16 72 -32 73 -36 2 -5 8 -8 13 -8 14 0 -80 170 -108
197 -13 12 -23 26 -23 30 0 4 7 -1 15 -11 21 -28 19 -12 -6 37 -11 23 -26 56
-34 74 l-14 32 27 -10 c15 -6 29 -14 32 -18 3 -4 43 -23 90 -42 47 -19 87 -37
90 -40 3 -4 41 -22 85 -40 44 -18 82 -36 85 -40 3 -3 43 -21 90 -40 47 -19 87
-37 90 -40 3 -4 34 -19 70 -34 36 -15 102 -45 146 -66 45 -22 86 -39 92 -39 6
0 15 -6 19 -13 4 -6 61 -63 126 -125 l117 -113 25 29 c14 17 25 35 25 40 0 6
6 15 13 19 15 9 183 206 188 221 2 5 38 23 79 40 50 20 75 35 74 45 -1 9 4 13
11 11 14 -6 95 25 177 66 l56 29 59 -95 c32 -52 69 -114 81 -137 49 -86 96
-162 106 -169 5 -4 32 -10 58 -13 26 -4 48 -11 48 -15 0 -5 21 -13 48 -19 26
-6 79 -20 117 -31 39 -11 80 -20 93 -20 12 0 22 -4 22 -8 0 -8 58 -32 78 -32
8 0 11 121 12 455 l0 455 -1782 0 c-1502 0 -1779 -2 -1763 -14z m560 -245 c-6
-5 -25 10 -25 20 0 5 6 4 14 -3 8 -7 12 -15 11 -17z m495 -65 c0 -12 -5 -7
-19 24 -11 24 -11 24 3 6 9 -11 16 -24 16 -30z m1834 -111 l27 -40 -30 35
c-17 19 -31 39 -31 44 0 5 1 7 3 5 2 -2 15 -22 31 -44z m-1774 -15 c6 -11 8
-20 6 -20 -3 0 -10 9 -16 20 -6 11 -8 20 -6 20 3 0 10 -9 16 -20z m38 -76 c-4
-3 -12 5 -18 18 -12 22 -12 22 6 6 10 -10 15 -20 12 -24z m1367 26 c-3 -5 -12
-10 -18 -10 -7 0 -6 4 3 10 19 12 23 12 15 0z m444 -55 c0 -11 -25 20 -41 50
-5 11 2 7 16 -10 14 -16 25 -34 25 -40z m-1125 -11 c3 -8 2 -12 -4 -9 -6 3
-10 10 -10 16 0 14 7 11 14 -7z m524 -54 c-54 -63 -137 -152 -117 -125 25 33
151 175 156 175 2 0 -15 -23 -39 -50z m656 -39 c20 -30 35 -56 33 -58 -4 -4
-46 56 -67 97 -18 36 -7 23 34 -39z m-1014 -19 c0 -9 -44 29 -58 50 -10 14 -2
10 21 -12 20 -19 37 -36 37 -38z m41 -47 c7 -13 3 -12 -10 5 -11 14 -21 30
-21 35 0 11 14 -7 31 -40z m1027 -30 c-3 -3 -9 2 -12 12 -6 14 -5 15 5 6 7 -7
10 -15 7 -18z m-932 -54 l15 -26 -19 22 c-10 11 -32 33 -48 48 l-29 26 33 -22
c18 -13 39 -34 48 -48z m66 -13 c-8 -8 -9 -4 -5 13 4 13 8 18 11 10 2 -7 -1
-18 -6 -23z m-22 -18 c0 -5 -2 -10 -4 -10 -3 0 -8 5 -11 10 -3 6 -1 10 4 10 6
0 11 -4 11 -10z"/>
<path d="M1 1782 l-1 -1782 1800 0 1800 0 0 1325 0 1325 -35 0 c-19 0 -35 -4
-35 -10 0 -5 -7 -10 -15 -10 -32 0 -275 -63 -275 -71 0 -5 -11 -9 -25 -9 -26
0 -100 -22 -152 -46 -17 -8 -36 -14 -42 -14 -6 0 -11 -4 -11 -9 0 -5 -26 -18
-58 -30 l-58 -22 -28 -102 c-15 -56 -27 -106 -25 -112 1 -5 0 -21 -4 -35 -10
-41 -16 -550 -7 -550 13 0 -30 -43 -75 -74 -22 -16 -29 -19 -15 -7 58 51 81
74 76 78 -5 5 -75 -51 -135 -107 -15 -14 -56 -50 -91 -80 -35 -30 -71 -62 -80
-70 -8 -8 -37 -32 -63 -53 -26 -21 -47 -43 -47 -48 0 -6 4 -7 10 -4 6 3 7 -1
3 -10 -4 -13 -8 -14 -14 -4 -5 9 -16 6 -43 -15 -20 -15 -36 -31 -36 -37 0 -5
-5 -9 -11 -9 -6 0 -17 -7 -25 -15 -9 -8 -33 -15 -54 -15 -43 0 -309 -28 -327
-35 -6 -2 -11 -18 -11 -35 1 -18 -4 -35 -11 -40 -7 -4 -13 -11 -12 -16 0 -15
-10 -53 -65 -244 -30 -102 -61 -212 -70 -245 -9 -33 -20 -72 -24 -87 -5 -15
-6 -36 -3 -47 3 -12 0 -27 -6 -34 -6 -8 -27 -67 -46 -133 -19 -65 -42 -141
-50 -168 -10 -32 -12 -52 -5 -56 5 -3 -6 -6 -25 -6 -19 0 -30 3 -23 7 8 5 7
25 -6 76 -10 37 -20 75 -23 83 -4 8 -5 23 -4 34 2 10 -2 16 -7 12 -5 -3 -7 5
-5 19 3 13 -2 54 -11 92 -9 37 -21 86 -26 108 -58 250 -132 550 -137 558 -8
13 -9 146 0 140 4 -2 10 4 13 14 3 10 14 36 24 58 83 187 150 357 144 367 -4
7 -3 8 4 4 7 -4 12 -1 12 6 0 15 41 100 53 109 5 3 -10 14 -32 23 -23 9 -78
34 -124 55 -94 45 -144 61 -132 41 6 -9 3 -10 -14 -1 -11 7 -21 17 -20 24 0 9
2 9 6 0 5 -14 23 -18 23 -5 0 5 -26 19 -58 32 -31 13 -93 40 -137 61 -44 21
-96 45 -115 54 -19 9 -53 25 -74 36 -27 15 -41 17 -46 9 -4 -7 -13 -1 -25 17
l-18 28 21 -19 c29 -25 28 -9 -1 34 -13 19 -48 80 -77 135 -70 133 -181 317
-188 310 -3 -3 -16 14 -30 37 -64 112 -64 112 -48 99 9 -7 16 -17 16 -22 0 -5
14 -30 30 -56 44 -69 37 -39 -10 41 -22 37 -40 70 -40 71 0 10 -93 151 -110
167 -21 20 -27 34 -10 23 17 -10 11 4 -23 63 -18 31 -36 64 -40 72 -4 8 -27
47 -51 85 -25 39 -56 94 -70 123 -14 29 -56 104 -93 165 -37 62 -73 123 -80
137 -9 19 -11 -394 -12 -1758z m39 1687 c15 -28 5 -23 -15 7 -9 15 -12 23 -6
20 6 -4 16 -16 21 -27z m56 -93 c4 -11 15 -34 26 -51 l20 -30 -26 30 c-14 17
-26 34 -26 38 0 5 -10 23 -22 40 l-22 32 22 -19 c12 -10 24 -28 28 -40z m80
-138 c8 -16 13 -28 10 -28 -5 0 -46 69 -46 78 0 8 15 -13 36 -50z m44 -89 c15
-28 5 -23 -15 7 -9 15 -12 23 -6 20 6 -4 16 -16 21 -27z m63 -108 c13 -27 14
-31 2 -21 -8 7 -15 17 -15 22 0 5 -9 21 -20 35 -11 14 -20 30 -20 36 0 14 33
-31 53 -72z m61 -106 l17 -30 -20 24 c-12 13 -21 28 -21 34 0 12 0 11 24 -28z
m74 -140 c-3 -3 -9 2 -12 12 -6 14 -5 15 5 6 7 -7 10 -15 7 -18z m41 -66 c25
-51 9 -41 -18 12 -12 22 -17 38 -11 34 6 -3 19 -24 29 -46z m150 -265 c12 -20
20 -39 17 -41 -2 -3 -14 13 -26 36 -25 51 -20 54 9 5z m80 -134 c34 -57 72
-130 67 -130 -4 0 -48 73 -84 140 -7 14 -20 32 -28 41 -8 8 -14 19 -14 24 0
10 32 -31 59 -75z m2214 45 c-3 -9 -8 -14 -10 -11 -3 3 -2 9 2 15 9 16 15 13
8 -4z m-30 -90 c-3 -9 -8 -14 -10 -11 -3 3 -2 9 2 15 9 16 15 13 8 -4z m-2083
-145 c7 -16 16 -30 21 -30 5 0 9 -5 9 -11 0 -19 -20 2 -41 43 -11 22 -16 37
-11 34 5 -3 15 -19 22 -36z m770 -440 c0 -5 -2 -10 -4 -10 -3 0 -8 5 -11 10
-3 6 -1 10 4 10 6 0 11 -4 11 -10z m1136 -198 c-17 -16 -18 -16 -5 5 7 12 15
20 18 17 3 -2 -3 -12 -13 -22z m-62 -54 c-3 -7 -17 -22 -32 -32 l-27 -20 20
25 c18 21 36 38 42 39 1 0 0 -6 -3 -12z m-64 -50 c0 -2 -17 -19 -37 -38 -21
-19 -31 -26 -23 -15 18 25 60 62 60 53z m-1187 -113 c-3 -9 -8 -14 -10 -11 -3
3 -2 9 2 15 9 16 15 13 8 -4z m967 -85 c-6 -11 -13 -20 -16 -20 -2 0 0 9 6 20
6 11 13 20 16 20 2 0 0 -9 -6 -20z m-467 -205 c-3 -9 -8 -14 -10 -11 -3 3 -2
9 2 15 9 16 15 13 8 -4z"/>
<path d="M1767 1622 c12 -7 11 -52 -2 -92 -6 -18 -1 -19 268 -49 94 -11 76 3
-111 83 -140 61 -186 78 -155 58z"/>
</g>
</svg>
